<?xml version="1.0" encoding="utf-8"?>
<!-- Generator: Adobe Illustrator 15.0.0, SVG Export Plug-In . SVG Version: 6.00 Build 0)  -->
<!DOCTYPE svg PUBLIC "-//W3C//DTD SVG 1.1//EN" "http://www.w3.org/Graphics/SVG/1.1/DTD/svg11.dtd">
<svg version="1.1" id="Capa_1" xmlns="http://www.w3.org/2000/svg" xmlns:xlink="http://www.w3.org/1999/xlink" x="0px" y="0px"
	 width="370.588px" height="177.777px" viewBox="0 0 370.588 177.777" enable-background="new 0 0 370.588 177.777"
	 xml:space="preserve">
<g>
	<g>
		<path fill="#2D301F" stroke="#2D301F" stroke-width="0.25" stroke-miterlimit="10" d="M15.664,168.134H8.813l-1.418,5.038H5.373
			l6.338-21.638h1.025l6.367,21.638h-2.007L15.664,168.134z M9.342,166.278h5.809l-2.852-9.975l-0.062-0.8l-0.061,0.8L9.342,166.278
			z"/>
		<path fill="#2D301F" stroke="#2D301F" stroke-width="0.25" stroke-miterlimit="10" d="M33.43,168.163
			c0,0.734-0.148,1.422-0.446,2.067c-0.295,0.644-0.694,1.205-1.19,1.689c-0.5,0.483-1.078,0.862-1.737,1.14
			c-0.657,0.274-1.355,0.415-2.088,0.415h-1.556c-0.731,0-1.429-0.141-2.088-0.415c-0.658-0.277-1.237-0.656-1.735-1.14
			c-0.498-0.484-0.895-1.046-1.192-1.689c-0.296-0.646-0.445-1.333-0.445-2.067v-0.859l1.945-0.317v1.177
			c0,0.481,0.101,0.933,0.295,1.35c0.197,0.416,0.46,0.785,0.791,1.103c0.334,0.317,0.716,0.565,1.155,0.747
			c0.438,0.181,0.899,0.271,1.381,0.271h1.358c0.482,0,0.94-0.09,1.371-0.271c0.434-0.182,0.816-0.43,1.147-0.747
			c0.332-0.317,0.596-0.687,0.792-1.103c0.197-0.417,0.294-0.868,0.294-1.35v-0.648c0-0.744-0.146-1.363-0.438-1.855
			c-0.291-0.494-0.677-0.913-1.161-1.262c-0.483-0.346-1.029-0.641-1.638-0.883c-0.609-0.241-1.234-0.482-1.878-0.724
			c-0.645-0.24-1.271-0.509-1.878-0.799c-0.61-0.293-1.156-0.656-1.638-1.095c-0.483-0.438-0.87-0.972-1.161-1.606
			c-0.292-0.634-0.438-1.414-0.438-2.338v-0.407c0-0.735,0.138-1.424,0.416-2.069c0.275-0.642,0.656-1.205,1.139-1.689
			c0.482-0.482,1.049-0.861,1.696-1.14c0.651-0.274,1.342-0.413,2.076-0.413h1.388c0.732,0,1.422,0.139,2.066,0.413
			c0.644,0.278,1.208,0.657,1.691,1.14c0.482,0.484,0.861,1.048,1.139,1.689c0.277,0.646,0.415,1.334,0.415,2.069v0.559
			l-1.946,0.315v-0.874c0-0.484-0.091-0.933-0.272-1.353c-0.181-0.415-0.428-0.781-0.738-1.094
			c-0.313-0.311-0.679-0.559-1.094-0.738c-0.419-0.18-0.868-0.271-1.351-0.271h-1.208c-0.482,0-0.934,0.092-1.352,0.271
			c-0.417,0.18-0.784,0.428-1.101,0.738c-0.318,0.313-0.566,0.679-0.747,1.094c-0.182,0.42-0.271,0.868-0.271,1.353v0.407
			c0,0.693,0.146,1.277,0.437,1.748c0.293,0.474,0.68,0.879,1.162,1.215c0.482,0.338,1.028,0.631,1.637,0.876
			c0.609,0.247,1.235,0.5,1.878,0.756c0.644,0.255,1.27,0.536,1.878,0.844c0.608,0.308,1.153,0.684,1.638,1.131
			c0.482,0.448,0.87,0.994,1.161,1.637c0.293,0.646,0.438,1.43,0.438,2.355V168.163z"/>
		<path fill="#2D301F" stroke="#2D301F" stroke-width="0.25" stroke-miterlimit="10" d="M48.746,170.23
			c-0.277,0.644-0.656,1.205-1.139,1.689c-0.482,0.483-1.048,0.862-1.689,1.14c-0.645,0.274-1.333,0.415-2.069,0.415h-1.538
			c-0.734,0-1.426-0.141-2.076-0.415c-0.648-0.277-1.214-0.656-1.696-1.14c-0.484-0.484-0.864-1.046-1.139-1.689
			c-0.277-0.646-0.416-1.333-0.416-2.067v-11.617c0-0.735,0.139-1.424,0.416-2.069c0.275-0.642,0.655-1.205,1.139-1.689
			c0.482-0.482,1.048-0.861,1.696-1.14c0.65-0.274,1.341-0.413,2.076-0.413h1.538c0.735,0,1.424,0.139,2.069,0.413
			c0.641,0.278,1.207,0.657,1.689,1.14c0.483,0.484,0.862,1.048,1.139,1.689c0.278,0.646,0.415,1.334,0.415,2.069v11.617
			C49.161,168.897,49.023,169.585,48.746,170.23z M47.213,156.546c0-0.484-0.089-0.933-0.271-1.353
			c-0.182-0.415-0.428-0.781-0.74-1.094c-0.312-0.311-0.676-0.559-1.094-0.738c-0.418-0.18-0.868-0.271-1.351-0.271h-1.357
			c-0.484,0-0.934,0.092-1.351,0.271c-0.417,0.18-0.785,0.428-1.102,0.738c-0.316,0.313-0.567,0.679-0.748,1.094
			c-0.181,0.42-0.271,0.868-0.271,1.353v11.617c0,0.481,0.09,0.933,0.271,1.35c0.181,0.416,0.431,0.785,0.748,1.103
			c0.317,0.317,0.685,0.565,1.102,0.747c0.417,0.181,0.867,0.271,1.351,0.271h1.357c0.483,0,0.933-0.09,1.351-0.271
			c0.417-0.182,0.782-0.43,1.094-0.747s0.558-0.687,0.74-1.103c0.182-0.417,0.271-0.868,0.271-1.35V156.546z"/>
		<path fill="#2D301F" stroke="#2D301F" stroke-width="0.25" stroke-miterlimit="10" d="M64.943,170.23
			c-0.277,0.644-0.657,1.205-1.139,1.689c-0.484,0.483-1.045,0.862-1.69,1.14c-0.644,0.274-1.333,0.415-2.067,0.415h-1.54
			c-0.734,0-1.426-0.141-2.075-0.415c-0.648-0.277-1.213-0.656-1.697-1.14c-0.482-0.484-0.862-1.046-1.139-1.689
			c-0.277-0.646-0.416-1.333-0.416-2.067v-11.617c0-0.735,0.139-1.424,0.416-2.069c0.277-0.642,0.657-1.205,1.139-1.689
			c0.484-0.482,1.049-0.861,1.697-1.14c0.648-0.274,1.34-0.413,2.075-0.413h1.54c0.733,0,1.423,0.139,2.067,0.413
			c0.645,0.278,1.206,0.657,1.69,1.14c0.482,0.484,0.862,1.048,1.139,1.689c0.276,0.646,0.416,1.334,0.416,2.069v0.874l-1.946,0.303
			v-1.177c0-0.484-0.093-0.933-0.272-1.353c-0.182-0.415-0.428-0.781-0.739-1.094c-0.313-0.311-0.677-0.559-1.095-0.738
			c-0.417-0.18-0.867-0.271-1.35-0.271h-1.358c-0.482,0-0.933,0.092-1.352,0.271c-0.416,0.18-0.783,0.428-1.1,0.738
			c-0.318,0.313-0.566,0.679-0.749,1.094c-0.179,0.42-0.271,0.868-0.271,1.353v11.617c0,0.481,0.092,0.933,0.271,1.35
			c0.182,0.416,0.431,0.785,0.749,1.103c0.316,0.317,0.684,0.565,1.1,0.747c0.418,0.181,0.87,0.271,1.352,0.271h1.358
			c0.483,0,0.933-0.09,1.35-0.271c0.418-0.182,0.783-0.43,1.095-0.747c0.312-0.317,0.558-0.687,0.739-1.103
			c0.179-0.417,0.272-0.868,0.272-1.35v-1.177l1.946,0.317v0.859C65.359,168.897,65.219,169.585,64.943,170.23z"/>
		<path fill="#2D301F" stroke="#2D301F" stroke-width="0.25" stroke-miterlimit="10" d="M69.38,173.172v-21.638h1.945v21.638H69.38z
			"/>
		<path fill="#2D301F" stroke="#2D301F" stroke-width="0.25" stroke-miterlimit="10" d="M84.084,168.134h-6.852l-1.417,5.038h-2.022
			l6.336-21.638h1.028l6.368,21.638h-2.007L84.084,168.134z M77.761,166.278h5.81l-2.852-9.975l-0.061-0.8l-0.06,0.8L77.761,166.278
			z"/>
		<path fill="#2D301F" stroke="#2D301F" stroke-width="0.25" stroke-miterlimit="10" d="M101.436,170.23
			c-0.278,0.644-0.656,1.205-1.139,1.689c-0.482,0.483-1.047,0.862-1.69,1.14c-0.644,0.274-1.333,0.415-2.067,0.415h-1.539
			c-0.734,0-1.428-0.141-2.076-0.415c-0.648-0.277-1.214-0.656-1.697-1.14c-0.483-0.484-0.862-1.046-1.139-1.689
			c-0.278-0.646-0.416-1.333-0.416-2.067v-11.617c0-0.735,0.137-1.424,0.416-2.069c0.276-0.642,0.656-1.205,1.139-1.689
			c0.482-0.482,1.048-0.861,1.697-1.14c0.648-0.274,1.341-0.413,2.076-0.413h1.539c0.733,0,1.423,0.139,2.067,0.413
			c0.643,0.278,1.208,0.657,1.69,1.14c0.483,0.484,0.861,1.048,1.139,1.689c0.276,0.646,0.415,1.334,0.415,2.069v0.874l-1.946,0.303
			v-1.177c0-0.484-0.09-0.933-0.272-1.353c-0.181-0.415-0.428-0.781-0.737-1.094c-0.313-0.311-0.679-0.559-1.095-0.738
			c-0.418-0.18-0.867-0.271-1.352-0.271h-1.356c-0.483,0-0.934,0.092-1.351,0.271c-0.418,0.18-0.785,0.428-1.103,0.738
			c-0.315,0.313-0.566,0.679-0.746,1.094c-0.182,0.42-0.272,0.868-0.272,1.353v11.617c0,0.481,0.09,0.933,0.272,1.35
			c0.18,0.416,0.431,0.785,0.746,1.103c0.318,0.317,0.685,0.565,1.103,0.747c0.417,0.181,0.868,0.271,1.351,0.271h1.356
			c0.484,0,0.934-0.09,1.352-0.271c0.416-0.182,0.782-0.43,1.095-0.747c0.309-0.317,0.556-0.687,0.737-1.103
			c0.183-0.417,0.272-0.868,0.272-1.35v-1.177l1.946,0.317v0.859C101.851,168.897,101.712,169.585,101.436,170.23z"/>
		<path fill="#2D301F" stroke="#2D301F" stroke-width="0.25" stroke-miterlimit="10" d="M105.872,173.172v-21.638h1.947v21.638
			H105.872z"/>
		<path fill="#2D301F" stroke="#2D301F" stroke-width="0.25" stroke-miterlimit="10" d="M123.903,170.23
			c-0.276,0.644-0.656,1.205-1.14,1.689c-0.482,0.483-1.045,0.862-1.689,1.14c-0.644,0.274-1.334,0.415-2.066,0.415h-1.54
			c-0.734,0-1.425-0.141-2.076-0.415c-0.648-0.277-1.214-0.656-1.697-1.14c-0.483-0.484-0.862-1.046-1.139-1.689
			c-0.275-0.646-0.415-1.333-0.415-2.067v-11.617c0-0.735,0.14-1.424,0.415-2.069c0.277-0.642,0.656-1.205,1.139-1.689
			c0.483-0.482,1.048-0.861,1.697-1.14c0.65-0.274,1.341-0.413,2.076-0.413h1.54c0.732,0,1.423,0.139,2.066,0.413
			c0.645,0.278,1.207,0.657,1.689,1.14c0.483,0.484,0.863,1.048,1.14,1.689c0.277,0.646,0.414,1.334,0.414,2.069v11.617
			C124.317,168.897,124.181,169.585,123.903,170.23z M122.371,156.546c0-0.484-0.09-0.933-0.271-1.353
			c-0.181-0.415-0.428-0.781-0.739-1.094c-0.312-0.311-0.678-0.559-1.095-0.738c-0.418-0.18-0.868-0.271-1.35-0.271h-1.359
			c-0.481,0-0.933,0.092-1.35,0.271s-0.784,0.428-1.101,0.738c-0.318,0.313-0.567,0.679-0.747,1.094
			c-0.181,0.42-0.272,0.868-0.272,1.353v11.617c0,0.481,0.091,0.933,0.272,1.35c0.18,0.416,0.429,0.785,0.747,1.103
			c0.316,0.317,0.683,0.565,1.101,0.747c0.417,0.181,0.869,0.271,1.35,0.271h1.359c0.481,0,0.932-0.09,1.35-0.271
			c0.417-0.182,0.783-0.43,1.095-0.747s0.559-0.687,0.739-1.103c0.181-0.417,0.271-0.868,0.271-1.35V156.546z M117.77,149.076
			h-1.388l2.475-3.711h3.093L117.77,149.076z"/>
		<path fill="#2D301F" stroke="#2D301F" stroke-width="0.25" stroke-miterlimit="10" d="M139.807,173.172l-9.022-15.752
			l-0.181-0.936v16.688h-1.947v-21.638h1.012l9.022,15.77l0.197,0.92v-16.689h1.946v21.638H139.807z"/>
	</g>
	<g>
		<path fill="#2D301F" stroke="#2D301F" stroke-width="0.25" stroke-miterlimit="10" d="M159.755,173.085h-0.618l-1.131-1.737
			c-0.473,0.625-1.047,1.12-1.721,1.488c-0.675,0.365-1.423,0.55-2.249,0.55h-1.13c-0.735,0-1.427-0.137-2.075-0.414
			c-0.649-0.278-1.215-0.657-1.698-1.14c-0.482-0.484-0.862-1.046-1.138-1.689c-0.277-0.646-0.417-1.334-0.417-2.069v-11.616
			c0-0.735,0.14-1.425,0.417-2.066c0.275-0.645,0.655-1.209,1.138-1.692c0.483-0.482,1.049-0.861,1.698-1.137
			c0.648-0.276,1.34-0.415,2.075-0.415h1.537c0.735,0,1.425,0.139,2.068,0.415c0.644,0.275,1.207,0.654,1.689,1.137
			c0.482,0.483,0.864,1.048,1.14,1.692c0.277,0.642,0.414,1.331,0.414,2.066v0.874l-1.946,0.304v-1.178
			c0-0.482-0.09-0.934-0.271-1.351c-0.181-0.416-0.429-0.782-0.739-1.094c-0.313-0.313-0.677-0.557-1.095-0.739
			c-0.418-0.181-0.867-0.271-1.35-0.271h-1.358c-0.483,0-0.935,0.091-1.351,0.271c-0.418,0.183-0.784,0.426-1.102,0.739
			c-0.316,0.312-0.565,0.678-0.747,1.094c-0.181,0.417-0.271,0.868-0.271,1.351v11.616c0,0.484,0.09,0.935,0.271,1.353
			c0.182,0.418,0.431,0.784,0.747,1.102c0.317,0.317,0.684,0.564,1.102,0.746c0.416,0.183,0.867,0.271,1.351,0.271h1.358
			c0.482,0,0.932-0.089,1.35-0.271c0.418-0.182,0.782-0.429,1.095-0.746c0.311-0.317,0.559-0.684,0.739-1.102
			s0.271-0.868,0.271-1.353v-4.511h-3.454v-1.855h5.4V173.085z"/>
		<path fill="#2D301F" stroke="#2D301F" stroke-width="0.25" stroke-miterlimit="10" d="M173.955,173.085l-5.87-9.233h-2.671v9.233
			h-1.946v-21.638h6.865c0.735,0,1.424,0.139,2.066,0.415c0.645,0.274,1.207,0.656,1.691,1.14c0.482,0.482,0.862,1.048,1.138,1.696
			c0.277,0.649,0.417,1.339,0.417,2.074v1.752c0,0.733-0.14,1.426-0.417,2.073c-0.275,0.65-0.655,1.215-1.138,1.697
			c-0.484,0.483-1.047,0.865-1.691,1.14c-0.643,0.277-1.331,0.417-2.066,0.417l5.869,9.233H173.955z M173.696,156.772
			c0-0.482-0.09-0.933-0.27-1.349c-0.181-0.418-0.428-0.784-0.741-1.104c-0.311-0.315-0.676-0.564-1.093-0.746
			c-0.417-0.178-0.868-0.27-1.35-0.27h-4.829v8.689h4.829c0.481,0,0.933-0.09,1.35-0.27c0.417-0.182,0.782-0.433,1.093-0.748
			c0.313-0.317,0.561-0.684,0.741-1.102c0.18-0.418,0.27-0.868,0.27-1.351V156.772z"/>
		<path fill="#2D301F" stroke="#2D301F" stroke-width="0.25" stroke-miterlimit="10" d="M187.413,168.045h-6.85l-1.418,5.04h-2.022
			l6.338-21.638h1.026l6.365,21.638h-2.007L187.413,168.045z M181.092,166.189h5.809l-2.852-9.974l-0.061-0.802l-0.06,0.802
			L181.092,166.189z"/>
		<path fill="#2D301F" stroke="#2D301F" stroke-width="0.25" stroke-miterlimit="10" d="M204.772,169.841
			c-0.275,0.644-0.656,1.205-1.138,1.688c-0.484,0.482-1.049,0.864-1.699,1.141c-0.648,0.276-1.339,0.415-2.073,0.415h-6.851
			v-21.638h6.851c0.734,0,1.425,0.139,2.073,0.415c0.65,0.274,1.215,0.656,1.699,1.14c0.481,0.482,0.862,1.048,1.138,1.696
			c0.276,0.649,0.414,1.339,0.414,2.074v11.001C205.187,168.506,205.049,169.197,204.772,169.841z M203.242,156.772
			c0-0.482-0.092-0.933-0.271-1.349c-0.182-0.418-0.429-0.784-0.748-1.104c-0.315-0.315-0.683-0.564-1.101-0.746
			c-0.417-0.178-0.868-0.27-1.351-0.27h-4.813v17.925h4.813c0.482,0,0.934-0.09,1.351-0.271c0.418-0.182,0.785-0.43,1.101-0.742
			c0.319-0.309,0.566-0.675,0.748-1.092c0.18-0.416,0.271-0.867,0.271-1.351V156.772z"/>
		<path fill="#2D301F" stroke="#2D301F" stroke-width="0.25" stroke-miterlimit="10" d="M220.646,170.143
			c-0.274,0.644-0.655,1.205-1.14,1.689c-0.482,0.482-1.044,0.861-1.688,1.14c-0.644,0.277-1.333,0.414-2.066,0.414h-1.54
			c-0.733,0-1.425-0.137-2.073-0.414c-0.648-0.278-1.215-0.657-1.698-1.14c-0.484-0.484-0.861-1.046-1.139-1.689
			c-0.278-0.646-0.417-1.334-0.417-2.069v-16.626h1.947v16.626c0,0.484,0.092,0.935,0.271,1.353
			c0.183,0.418,0.431,0.784,0.748,1.102c0.315,0.317,0.685,0.564,1.101,0.746c0.417,0.183,0.868,0.271,1.352,0.271h1.356
			c0.484,0,0.935-0.089,1.351-0.271c0.417-0.182,0.783-0.429,1.094-0.746c0.313-0.317,0.56-0.684,0.74-1.102
			c0.18-0.418,0.271-0.868,0.271-1.353v-16.626h1.946v16.626C221.063,168.809,220.924,169.497,220.646,170.143z"/>
		<path fill="#2D301F" stroke="#2D301F" stroke-width="0.25" stroke-miterlimit="10" d="M233.209,168.045h-6.851l-1.417,5.04h-2.021
			l6.335-21.638h1.027l6.367,21.638h-2.008L233.209,168.045z M226.887,166.189h5.809l-2.85-9.974l-0.061-0.802l-0.062,0.802
			L226.887,166.189z"/>
		<path fill="#2D301F" stroke="#2D301F" stroke-width="0.25" stroke-miterlimit="10" d="M250.569,169.841
			c-0.278,0.644-0.656,1.205-1.14,1.688c-0.482,0.482-1.051,0.864-1.697,1.141c-0.65,0.276-1.342,0.415-2.073,0.415h-6.852v-21.638
			h6.852c0.731,0,1.423,0.139,2.073,0.415c0.646,0.274,1.215,0.656,1.697,1.14c0.483,0.482,0.861,1.048,1.14,1.696
			c0.277,0.649,0.413,1.339,0.413,2.074v11.001C250.982,168.506,250.847,169.197,250.569,169.841z M249.037,156.772
			c0-0.482-0.09-0.933-0.273-1.349c-0.18-0.418-0.429-0.784-0.744-1.104c-0.315-0.315-0.686-0.564-1.102-0.746
			c-0.417-0.178-0.868-0.27-1.351-0.27h-4.813v17.925h4.813c0.482,0,0.934-0.09,1.351-0.271c0.416-0.182,0.786-0.43,1.102-0.742
			c0.315-0.309,0.564-0.675,0.744-1.092c0.184-0.416,0.273-0.867,0.273-1.351V156.772z"/>
		<path fill="#2D301F" stroke="#2D301F" stroke-width="0.25" stroke-miterlimit="10" d="M266.442,170.143
			c-0.274,0.644-0.656,1.205-1.139,1.689c-0.483,0.482-1.047,0.861-1.69,1.14c-0.644,0.277-1.332,0.414-2.066,0.414h-1.539
			c-0.735,0-1.426-0.137-2.076-0.414c-0.647-0.278-1.214-0.657-1.696-1.14c-0.481-0.484-0.863-1.046-1.14-1.689
			c-0.275-0.646-0.415-1.334-0.415-2.069v-11.616c0-0.735,0.14-1.425,0.415-2.066c0.276-0.645,0.658-1.209,1.14-1.692
			c0.482-0.482,1.049-0.861,1.696-1.137c0.65-0.276,1.341-0.415,2.076-0.415h1.539c0.734,0,1.423,0.139,2.066,0.415
			c0.644,0.275,1.207,0.654,1.69,1.137c0.482,0.483,0.864,1.048,1.139,1.692c0.278,0.642,0.415,1.331,0.415,2.066v11.616
			C266.857,168.809,266.721,169.497,266.442,170.143z M264.912,156.457c0-0.482-0.092-0.934-0.273-1.351
			c-0.182-0.416-0.428-0.782-0.739-1.094c-0.31-0.313-0.676-0.557-1.093-0.739c-0.418-0.181-0.869-0.271-1.351-0.271h-1.359
			c-0.481,0-0.932,0.091-1.351,0.271c-0.417,0.183-0.783,0.426-1.099,0.739c-0.318,0.312-0.568,0.678-0.748,1.094
			c-0.182,0.417-0.271,0.868-0.271,1.351v11.616c0,0.484,0.09,0.935,0.271,1.353c0.18,0.418,0.43,0.784,0.748,1.102
			c0.315,0.317,0.682,0.564,1.099,0.746c0.419,0.183,0.869,0.271,1.351,0.271h1.359c0.481,0,0.933-0.089,1.351-0.271
			c0.417-0.182,0.783-0.429,1.093-0.746c0.312-0.317,0.558-0.684,0.739-1.102s0.273-0.868,0.273-1.353V156.457z"/>
		<path fill="#2D301F" stroke="#2D301F" stroke-width="0.25" stroke-miterlimit="10" d="M282.745,168.073
			c0,0.735-0.148,1.424-0.445,2.069c-0.295,0.644-0.692,1.205-1.192,1.689c-0.497,0.482-1.076,0.861-1.734,1.14
			c-0.658,0.277-1.355,0.414-2.088,0.414h-1.556c-0.735,0-1.431-0.137-2.089-0.414c-0.658-0.278-1.237-0.657-1.735-1.14
			c-0.499-0.484-0.895-1.046-1.193-1.689c-0.295-0.646-0.443-1.334-0.443-2.069v-0.858l1.946-0.316v1.175
			c0,0.484,0.098,0.935,0.295,1.353c0.193,0.418,0.459,0.784,0.792,1.102c0.329,0.317,0.715,0.564,1.153,0.746
			c0.437,0.183,0.897,0.271,1.382,0.271h1.355c0.483,0,0.942-0.089,1.374-0.271c0.433-0.182,0.814-0.429,1.146-0.746
			c0.334-0.317,0.596-0.684,0.792-1.102c0.198-0.418,0.295-0.868,0.295-1.353v-0.646c0-0.745-0.147-1.363-0.438-1.855
			c-0.292-0.496-0.679-0.912-1.161-1.261c-0.482-0.348-1.028-0.643-1.638-0.884c-0.609-0.24-1.235-0.481-1.878-0.725
			c-0.644-0.239-1.271-0.506-1.878-0.798c-0.61-0.294-1.154-0.656-1.639-1.094c-0.483-0.438-0.87-0.974-1.16-1.607
			c-0.293-0.635-0.438-1.414-0.438-2.339v-0.407c0-0.735,0.139-1.425,0.413-2.066c0.278-0.645,0.658-1.209,1.14-1.692
			c0.482-0.482,1.051-0.861,1.697-1.137c0.65-0.276,1.342-0.415,2.075-0.415h1.39c0.732,0,1.421,0.139,2.067,0.415
			c0.641,0.275,1.206,0.654,1.688,1.137c0.484,0.483,0.863,1.048,1.14,1.692c0.275,0.642,0.416,1.331,0.416,2.066v0.559
			l-1.947,0.315v-0.874c0-0.482-0.091-0.934-0.272-1.351c-0.182-0.416-0.428-0.782-0.74-1.094c-0.31-0.313-0.676-0.557-1.095-0.739
			c-0.415-0.181-0.866-0.271-1.35-0.271h-1.205c-0.484,0-0.933,0.091-1.351,0.271c-0.418,0.183-0.784,0.426-1.104,0.739
			c-0.315,0.312-0.564,0.678-0.744,1.094c-0.184,0.417-0.271,0.868-0.271,1.351v0.407c0,0.694,0.145,1.278,0.436,1.752
			c0.293,0.47,0.678,0.875,1.161,1.213c0.484,0.336,1.03,0.63,1.638,0.876c0.609,0.246,1.235,0.497,1.879,0.754
			c0.645,0.256,1.271,0.538,1.88,0.845c0.605,0.308,1.154,0.685,1.638,1.131c0.482,0.448,0.867,0.994,1.161,1.638
			c0.29,0.643,0.436,1.43,0.436,2.354V168.073z"/>
		<path fill="#2D301F" stroke="#2D301F" stroke-width="0.25" stroke-miterlimit="10" d="M295.576,153.305v19.78h-1.947v-19.78
			h-5.162v-1.857h12.27v1.857H295.576z"/>
		<path fill="#2D301F" stroke="#2D301F" stroke-width="0.25" stroke-miterlimit="10" d="M310.407,168.045h-6.85l-1.419,5.04h-2.021
			l6.337-21.638h1.025l6.368,21.638h-2.007L310.407,168.045z M304.086,166.189h5.808l-2.853-9.974l-0.06-0.802l-0.061,0.802
			L304.086,166.189z"/>
		<path fill="#2D301F" stroke="#2D301F" stroke-width="0.25" stroke-miterlimit="10" d="M327.156,173.085l-9.024-15.754
			l-0.178-0.936v16.689h-1.947v-21.638h1.01l9.022,15.768l0.195,0.92v-16.688h1.947v21.638H327.156z"/>
		<path fill="#2D301F" stroke="#2D301F" stroke-width="0.25" stroke-miterlimit="10" d="M344.274,169.841
			c-0.278,0.644-0.655,1.205-1.138,1.688c-0.482,0.482-1.051,0.864-1.698,1.141c-0.649,0.276-1.341,0.415-2.076,0.415h-6.848
			v-21.638h6.848c0.735,0,1.427,0.139,2.076,0.415c0.647,0.274,1.216,0.656,1.698,1.14c0.482,0.482,0.859,1.048,1.138,1.696
			c0.276,0.649,0.415,1.339,0.415,2.074v11.001C344.689,168.506,344.551,169.197,344.274,169.841z M342.742,156.772
			c0-0.482-0.088-0.933-0.271-1.349c-0.18-0.418-0.429-0.784-0.745-1.104c-0.316-0.315-0.685-0.564-1.101-0.746
			c-0.42-0.178-0.87-0.27-1.351-0.27h-4.814v17.925h4.814c0.48,0,0.931-0.09,1.351-0.271c0.416-0.182,0.784-0.43,1.101-0.742
			c0.316-0.309,0.565-0.675,0.745-1.092c0.184-0.416,0.271-0.867,0.271-1.351V156.772z"/>
		<path fill="#2D301F" stroke="#2D301F" stroke-width="0.25" stroke-miterlimit="10" d="M348.703,173.085v-21.638h1.949v21.638
			H348.703z"/>
		<path fill="#2D301F" stroke="#2D301F" stroke-width="0.25" stroke-miterlimit="10" d="M354.665,173.085v-21.638h1.946v19.782
			h8.284v1.855H354.665z"/>
	</g>
	<g>
		<path fill="#6AAE23" d="M92.851,30.922c-0.597-2.373-2.081-4.37-4.181-5.624L62.056,9.392c-0.969-0.579-2.021-0.97-3.124-1.162
			c-3.711-0.646-7.5,1.093-9.434,4.325L33.593,39.169c-2.59,4.334-1.172,9.968,3.162,12.557L63.37,67.632
			c0.967,0.579,2.02,0.97,3.123,1.162c3.711,0.647,7.502-1.091,9.434-4.324l15.906-26.615
			C93.088,35.756,93.448,33.295,92.851,30.922z"/>
		<path fill="#2D301F" d="M138.968,58.483c-0.598-2.372-2.083-4.369-4.182-5.624l-26.615-15.907
			c-0.968-0.578-2.021-0.968-3.125-1.163c-3.709-0.645-7.501,1.093-9.434,4.326L79.708,66.73c-1.254,2.099-1.617,4.563-1.019,6.933
			c0.597,2.372,2.083,4.369,4.181,5.623l26.616,15.908c0.968,0.579,2.021,0.972,3.124,1.163c3.709,0.646,7.5-1.093,9.43-4.325
			l15.909-26.614C139.202,63.317,139.564,60.854,138.968,58.483z"/>
		<path fill="#2D301F" d="M61.108,71.416L34.494,55.509c-0.968-0.579-2.021-0.971-3.123-1.164c-3.71-0.646-7.5,1.093-9.433,4.325
			L6.031,85.285c-1.255,2.101-1.616,4.56-1.02,6.933c0.597,2.373,2.083,4.369,4.182,5.625l26.615,15.907
			c0.968,0.579,2.021,0.97,3.124,1.163c3.708,0.646,7.5-1.092,9.432-4.325l15.907-26.616C66.862,79.638,65.443,74.005,61.108,71.416
			z"/>
		<path fill="#6AAE23" d="M107.223,98.975L80.609,83.069c-0.967-0.579-2.019-0.97-3.123-1.162c-3.71-0.646-7.501,1.092-9.434,4.325
			l-9.25,15.48l-4.749,7.944l-1.907,3.19c-1.255,2.1-1.617,4.562-1.02,6.932c0.596,2.373,2.081,4.371,4.182,5.624l26.614,15.908
			c0.969,0.579,2.02,0.971,3.125,1.161c3.709,0.647,7.5-1.092,9.432-4.323l15.906-26.615
			C112.976,107.199,111.559,101.566,107.223,98.975z"/>
	</g>
	<g>
		<path fill="#2D301F" d="M136.383,132.789c-0.335,0.779-0.795,1.461-1.38,2.047c-0.585,0.585-1.27,1.046-2.057,1.38
			c-0.785,0.335-1.623,0.502-2.514,0.502h-8.299v-26.213h8.299c0.891,0,1.729,0.169,2.514,0.503
			c0.787,0.334,1.472,0.795,2.057,1.379c0.585,0.587,1.045,1.272,1.38,2.058s0.504,1.624,0.504,2.512v0.257
			c0,0.622-0.083,1.215-0.248,1.781c-0.164,0.568-0.398,1.095-0.704,1.583c-0.304,0.487-0.664,0.929-1.078,1.324
			c-0.414,0.397-0.877,0.729-1.39,0.997c0.513,0.268,0.976,0.6,1.39,0.996c0.414,0.396,0.774,0.841,1.078,1.335
			c0.306,0.494,0.54,1.024,0.704,1.591c0.165,0.566,0.248,1.159,0.248,1.781v1.682C136.887,131.174,136.718,132.01,136.383,132.789z
			 M134.527,116.957c0-0.583-0.109-1.129-0.329-1.634c-0.219-0.505-0.521-0.952-0.903-1.335c-0.385-0.384-0.83-0.685-1.335-0.906
			c-0.506-0.218-1.052-0.328-1.636-0.328h-5.832v9.03h5.832c0.584,0,1.13-0.108,1.636-0.328c0.505-0.219,0.95-0.522,1.335-0.906
			c0.383-0.383,0.685-0.828,0.903-1.333c0.22-0.506,0.329-1.053,0.329-1.638V116.957z M134.527,128.218
			c0-0.585-0.109-1.131-0.329-1.636c-0.219-0.505-0.521-0.947-0.903-1.325c-0.385-0.378-0.83-0.676-1.335-0.896
			c-0.506-0.218-1.052-0.328-1.636-0.328h-5.832v10.438h5.832c0.584,0,1.13-0.11,1.636-0.331c0.505-0.218,0.95-0.518,1.335-0.895
			c0.383-0.377,0.685-0.819,0.903-1.325c0.22-0.507,0.329-1.051,0.329-1.637V128.218z"/>
		<path fill="#2D301F" d="M150.281,130.613h-8.299l-1.719,6.104h-2.448l7.677-26.213h1.243l7.714,26.213h-2.432L150.281,130.613z
			 M142.622,128.364h7.037l-3.454-12.083l-0.073-0.969l-0.073,0.969L142.622,128.364z"/>
		<path fill="#2D301F" d="M170.387,136.718l-10.932-19.084l-0.22-1.133v20.217h-2.358v-26.213h1.225l10.932,19.104l0.237,1.113
			v-20.217h2.358v26.213H170.387z"/>
		<path fill="#2D301F" d="M190.553,133.155c-0.334,0.779-0.795,1.461-1.379,2.045c-0.584,0.587-1.269,1.046-2.047,1.382
			c-0.78,0.335-1.615,0.502-2.505,0.502h-1.864c-0.89,0-1.728-0.167-2.513-0.502c-0.787-0.336-1.473-0.795-2.057-1.382
			c-0.586-0.584-1.046-1.266-1.381-2.045c-0.336-0.781-0.503-1.616-0.503-2.506v-14.076c0-0.888,0.167-1.725,0.503-2.504
			c0.335-0.78,0.795-1.461,1.381-2.048c0.584-0.583,1.27-1.044,2.057-1.379c0.785-0.334,1.623-0.503,2.513-0.503h1.864
			c0.89,0,1.725,0.169,2.505,0.503c0.778,0.334,1.463,0.795,2.047,1.379c0.584,0.587,1.045,1.269,1.379,2.048
			c0.337,0.779,0.505,1.616,0.505,2.504v1.061l-2.36,0.366v-1.426c0-0.585-0.107-1.128-0.328-1.636
			c-0.218-0.505-0.518-0.947-0.895-1.325c-0.378-0.377-0.82-0.675-1.326-0.896c-0.506-0.218-1.051-0.328-1.636-0.328h-1.646
			c-0.585,0-1.131,0.11-1.636,0.328c-0.505,0.221-0.95,0.519-1.335,0.896c-0.384,0.378-0.686,0.82-0.904,1.325
			c-0.22,0.508-0.329,1.051-0.329,1.636v14.076c0,0.586,0.109,1.13,0.329,1.637c0.219,0.506,0.521,0.949,0.904,1.333
			c0.385,0.385,0.83,0.687,1.335,0.905c0.505,0.22,1.051,0.328,1.636,0.328h1.646c0.585,0,1.13-0.108,1.636-0.328
			c0.506-0.219,0.948-0.521,1.326-0.905c0.377-0.384,0.677-0.827,0.895-1.333c0.221-0.507,0.328-1.051,0.328-1.637v-1.427
			l2.36,0.386v1.041C191.058,131.539,190.89,132.374,190.553,133.155z"/>
		<path fill="#2D301F" d="M209.232,133.155c-0.335,0.779-0.796,1.461-1.38,2.045c-0.583,0.587-1.269,1.046-2.048,1.382
			c-0.779,0.335-1.615,0.502-2.504,0.502h-1.863c-0.891,0-1.729-0.167-2.516-0.502c-0.785-0.336-1.471-0.795-2.054-1.382
			c-0.587-0.584-1.048-1.266-1.383-2.045c-0.334-0.781-0.502-1.616-0.502-2.506v-14.076c0-0.888,0.168-1.725,0.502-2.504
			c0.335-0.78,0.796-1.461,1.383-2.048c0.583-0.583,1.269-1.044,2.054-1.379c0.786-0.334,1.625-0.503,2.516-0.503h1.863
			c0.889,0,1.725,0.169,2.504,0.503s1.465,0.795,2.048,1.379c0.584,0.587,1.045,1.269,1.38,2.048
			c0.336,0.779,0.503,1.616,0.503,2.504v14.076C209.735,131.539,209.568,132.374,209.232,133.155z M207.376,116.573
			c0-0.585-0.106-1.128-0.328-1.636c-0.219-0.505-0.518-0.947-0.896-1.325c-0.378-0.377-0.819-0.675-1.326-0.896
			c-0.505-0.218-1.051-0.328-1.635-0.328h-1.646c-0.585,0-1.131,0.11-1.636,0.328c-0.505,0.221-0.95,0.519-1.335,0.896
			c-0.384,0.378-0.685,0.82-0.906,1.325c-0.218,0.508-0.328,1.051-0.328,1.636v14.076c0,0.586,0.11,1.13,0.328,1.637
			c0.222,0.506,0.522,0.949,0.906,1.333c0.385,0.385,0.83,0.687,1.335,0.905c0.505,0.22,1.051,0.328,1.636,0.328h1.646
			c0.584,0,1.13-0.108,1.635-0.328c0.507-0.219,0.948-0.521,1.326-0.905c0.378-0.384,0.677-0.827,0.896-1.333
			c0.222-0.507,0.328-1.051,0.328-1.637V116.573z"/>
		<path fill="#2D301F" d="M236.353,132.789c-0.335,0.779-0.795,1.461-1.379,2.047c-0.587,0.585-1.272,1.046-2.058,1.38
			c-0.786,0.335-1.624,0.502-2.512,0.502h-8.3v-26.213h8.3c0.888,0,1.726,0.169,2.512,0.503c0.785,0.334,1.471,0.795,2.058,1.379
			c0.584,0.587,1.044,1.272,1.379,2.058c0.334,0.786,0.503,1.624,0.503,2.512v13.327
			C236.855,131.174,236.687,132.01,236.353,132.789z M234.497,116.957c0-0.583-0.11-1.129-0.328-1.634
			c-0.222-0.505-0.521-0.952-0.906-1.335c-0.383-0.384-0.826-0.685-1.333-0.906c-0.507-0.218-1.053-0.328-1.637-0.328h-5.831v21.717
			h5.831c0.584,0,1.13-0.11,1.637-0.331c0.507-0.218,0.95-0.518,1.333-0.895c0.386-0.377,0.685-0.819,0.906-1.325
			c0.218-0.507,0.328-1.051,0.328-1.637V116.957z"/>
		<path fill="#2D301F" d="M241.531,136.718v-26.213h14.753v2.249H243.89v9.742h10.035v2.25H243.89v9.726h12.395v2.247H241.531z"/>
		<path fill="#2D301F" d="M273.879,112.753v23.964h-2.358v-23.964h-6.252v-2.249h14.863v2.249H273.879z"/>
		<path fill="#2D301F" d="M282.944,136.718v-26.213h2.356v26.213H282.944z"/>
		<path fill="#2D301F" d="M290.36,136.718v-26.213h14.753v2.249h-12.395v9.742h10.035v2.25h-10.035v9.726h12.395v2.247H290.36z"/>
		<path fill="#2D301F" d="M324.814,136.718v-17.969l-0.164,1.114l-6.088,16.854h-1.243l-6.141-16.854l-0.147-1.114v17.969h-2.358
			v-26.213h1.225l7.952,21.497l0.072,0.97l0.074-0.97l7.933-21.497h1.243v26.213H324.814z"/>
		<path fill="#2D301F" d="M346.465,122.716c-0.337,0.779-0.796,1.461-1.381,2.048c-0.586,0.584-1.271,1.045-2.058,1.38
			c-0.784,0.336-1.622,0.503-2.512,0.503h-5.941v10.071h-2.358v-26.213h8.3c0.89,0,1.728,0.169,2.512,0.503
			c0.787,0.334,1.472,0.795,2.058,1.379c0.585,0.587,1.044,1.272,1.381,2.058c0.334,0.786,0.503,1.624,0.503,2.512v3.255
			C346.968,121.1,346.799,121.937,346.465,122.716z M344.608,116.957c0-0.583-0.11-1.129-0.329-1.634
			c-0.22-0.505-0.521-0.952-0.904-1.335c-0.384-0.384-0.828-0.685-1.333-0.906c-0.509-0.218-1.053-0.328-1.639-0.328h-5.83v11.645
			h5.83c0.586,0,1.13-0.111,1.639-0.329c0.505-0.221,0.949-0.519,1.333-0.896c0.383-0.378,0.685-0.82,0.904-1.325
			c0.219-0.505,0.329-1.051,0.329-1.636V116.957z"/>
		<path fill="#2D301F" d="M364.394,133.155c-0.338,0.779-0.795,1.461-1.382,2.045c-0.584,0.587-1.268,1.046-2.047,1.382
			c-0.781,0.335-1.614,0.502-2.504,0.502h-1.865c-0.89,0-1.726-0.167-2.512-0.502c-0.787-0.336-1.474-0.795-2.058-1.382
			c-0.584-0.584-1.045-1.266-1.379-2.045c-0.336-0.781-0.504-1.616-0.504-2.506v-14.076c0-0.888,0.168-1.725,0.504-2.504
			c0.334-0.78,0.795-1.461,1.379-2.048c0.584-0.583,1.271-1.044,2.058-1.379c0.786-0.334,1.622-0.503,2.512-0.503h1.865
			c0.89,0,1.723,0.169,2.504,0.503c0.779,0.334,1.463,0.795,2.047,1.379c0.587,0.587,1.044,1.269,1.382,2.048
			c0.335,0.779,0.502,1.616,0.502,2.504v14.076C364.896,131.539,364.729,132.374,364.394,133.155z M362.538,116.573
			c0-0.585-0.11-1.128-0.33-1.636c-0.219-0.505-0.519-0.947-0.895-1.325c-0.378-0.377-0.82-0.675-1.325-0.896
			c-0.508-0.218-1.051-0.328-1.638-0.328h-1.645c-0.583,0-1.131,0.11-1.636,0.328c-0.507,0.221-0.951,0.519-1.335,0.896
			c-0.384,0.378-0.687,0.82-0.904,1.325c-0.221,0.508-0.328,1.051-0.328,1.636v14.076c0,0.586,0.107,1.13,0.328,1.637
			c0.218,0.506,0.521,0.949,0.904,1.333c0.384,0.385,0.828,0.687,1.335,0.905c0.505,0.22,1.053,0.328,1.636,0.328h1.645
			c0.587,0,1.13-0.108,1.638-0.328c0.505-0.219,0.947-0.521,1.325-0.905c0.376-0.384,0.676-0.827,0.895-1.333
			c0.22-0.507,0.33-1.051,0.33-1.637V116.573z"/>
	</g>
	<g>
		<path fill="#2D301F" d="M114.265,48.875c-3.5,5.952-15.189,5.572-26.103-0.851c-10.912-6.425-16.92-16.453-13.417-22.406
			c3.504-5.954,15.189-5.573,26.102,0.85C111.76,32.888,117.769,42.919,114.265,48.875z"/>
		<path fill="#FFFFFF" d="M76.577,78.752c18.727,2.8,37.17-29,37.17-29s-1.305-8.94-16.185-17.699
			c-14.886-8.757-23.176-5.716-23.176-5.716s-19.999,31.18-8.659,46.076c-18.526-2.683-35.348,29.938-35.348,29.938l39.316,21.819
			C69.696,124.171,88.117,93.768,76.577,78.752z"/>
		<path fill="#6AAE23" d="M76.459,74.169c9.301,2.172,17.952-7.409,17.952-7.409s-2.189-5.088-11.171-10.373
			c-11.034-6.494-14.49-4.729-14.49-4.729s-5.148,12.158,1.612,19.075c-0.122,1.531-0.665,3.822-1.201,5.018
			c-1.104,2.46-21.846,36.993-21.846,36.993l3.306,1.944c0,0,19.473-34.363,21.321-37.337
			C72.957,75.722,75.418,74.279,76.459,74.169z"/>
		<path fill="#6AAE23" d="M40.539,93.667c0,0,4.397-0.013,7.83,1.147c3.433,1.161,4.604,2.125,4.604,2.125
			s-2.584-7.798-0.984-12.683c1.598-4.886,6.628-8.609,6.628-8.609s-6.097,3.83-10.48,8.238
			C43.752,88.293,40.539,93.667,40.539,93.667z"/>
		
			<ellipse transform="matrix(0.8619 0.5071 -0.5071 0.8619 63.9182 -10.0034)" fill="#2D301F" cx="50.322" cy="112.329" rx="22.927" ry="12.508"/>
	</g>
</g>
</svg>
